<?xml version="1.0" encoding="UTF-8" standalone="no"?>
<svg
   xmlns:dc="http://purl.org/dc/elements/1.1/"
   xmlns:cc="http://creativecommons.org/ns#"
   xmlns:rdf="http://www.w3.org/1999/02/22-rdf-syntax-ns#"
   xmlns:svg="http://www.w3.org/2000/svg"
   xmlns="http://www.w3.org/2000/svg"
   xmlns:sodipodi="http://sodipodi.sourceforge.net/DTD/sodipodi-0.dtd"
   xmlns:inkscape="http://www.inkscape.org/namespaces/inkscape"
   width="42.392326mm"
   height="35.570595mm"
   viewBox="0 0 42.392326 35.570595"
   version="1.1"
   id="svg8"
   inkscape:version="1.0.1 (3bc2e813f5, 2020-09-07)"
   sodipodi:docname="terug.svg">
  <defs
     id="defs2" />
  <sodipodi:namedview
     id="base"
     pagecolor="#ffffff"
     bordercolor="#666666"
     borderopacity="1.0"
     inkscape:pageopacity="0.0"
     inkscape:pageshadow="2"
     inkscape:zoom="0.98994949"
     inkscape:cx="222.78584"
     inkscape:cy="256.97915"
     inkscape:document-units="mm"
     inkscape:current-layer="layer1"
     inkscape:document-rotation="0"
     showgrid="false"
     inkscape:window-width="1544"
     inkscape:window-height="1030"
     inkscape:window-x="63"
     inkscape:window-y="61"
     inkscape:window-maximized="0" />
  <metadata
     id="metadata5">
    <rdf:RDF>
      <cc:Work
         rdf:about="">
        <dc:format>image/svg+xml</dc:format>
        <dc:type
           rdf:resource="http://purl.org/dc/dcmitype/StillImage" />
        <dc:title />
      </cc:Work>
    </rdf:RDF>
  </metadata>
  <g
     inkscape:label="Laag 1"
     inkscape:groupmode="layer"
     id="layer1"
     transform="translate(-46.887912,-58.792706)">
    <path
       style="fill:#78003c;stroke-width:0.101571;fill-opacity:1"
       d="M 88.633667,93.63615 C 86.469402,90.5444 83.76831,88.175444 80.609548,86.598712 77.330114,84.961739 74.174619,84.252309 68.908165,83.967961 l -0.833274,-0.04499 -0.0301,3.672028 c -0.02902,3.543666 -0.03777,3.68642 -0.25047,4.083686 -0.72066,1.346117 -2.279114,1.870958 -3.552474,1.196373 -0.407989,-0.216138 -1.912232,-1.640965 -6.053636,-5.734037 -3.03091,-2.995539 -6.813397,-6.730798 -8.405524,-8.300574 L 46.887912,75.9863 49.480329,73.418762 C 61.561212,61.453829 63.713453,59.363813 64.239751,59.086079 c 1.277175,-0.673982 2.833746,-0.150086 3.554589,1.196372 0.21175,0.395527 0.222376,0.558837 0.271172,4.167527 l 0.05079,3.755869 0.507857,0.07912 c 4.203744,0.654878 7.508999,1.98779 10.862525,4.380537 2.291188,1.634765 5.125278,4.778 6.536004,7.248956 2.118049,3.709865 3.084587,7.340962 3.231394,12.139745 0.04154,1.358026 0.0329,2.310064 -0.02092,2.309096 -0.05039,-7.67e-4 -0.320157,-0.328123 -0.59948,-0.727147 z"
       id="path847"
       inkscape:export-xdpi="102"
       inkscape:export-ydpi="102" />
  </g>
</svg>
