<svg width="214.18mm" height="188.46mm" version="1.1" viewBox="0 0 214.18 188.46" xmlns="http://www.w3.org/2000/svg" xmlns:xlink="http://www.w3.org/1999/xlink">
 <defs>
  <linearGradient id="linearGradient1221" x1="58.4" x2="174.23" y1="107.99" y2="132.3" gradientUnits="userSpaceOnUse">
   <stop stop-color="#28b0ea" offset="0"/>
   <stop stop-color="#28b0ea" stop-opacity="0" offset="1"/>
  </linearGradient>
 </defs>
 <g transform="translate(166.81 168.31)">
  <g transform="translate(-30.511 141.52)">
   <g transform="matrix(.97741 0 0 1 -116.06 62.612)">
    <g transform="translate(-.059586 -433.38)">
     <path d="m84.571 92.699c1.8053-1.5733 5.8868-1.9367 7.7485-0.47247 6.098 4.7961 5.8586 3.5885 5.8586 8.3155v68.792c0 2.9316-2.3601 5.2917-5.2917 5.2917h-7.9375c-2.9316 0-5.2917-2.3601-5.2917-5.2917v-68.792c0-4.538-0.37923-3.2302 4.9137-7.843z" fill="#28b0ea" opacity=".98"/>
     <path d="m60.854 114.15 22.451-20.401c3.1094-2.8255 8.1159-2.8255 11.225-1e-6l22.451 20.401c3.1094 2.8255 3.1094 7.3749 0 10.2-20.126-0.29168-33.355-0.29168-56.127 0-3.1094-2.8255-3.1094-7.3749-1e-6 -10.2z" fill="url(#linearGradient1221)"/>
    </g>
    <text x="37.92519" y="-214.86433" fill="#000000" font-family="sans-serif" font-size="42.645px" stroke-width="1.0661" style="line-height:1.25" xml:space="preserve"><tspan x="37.92519" y="-214.86433" stroke-width="1.0661">vaak</tspan><tspan x="37.92519" y="-161.55783"/></text>
   </g>
   <rect x="-103.95" y="-287.51" width="159.39" height="148.22" ry="4.7595" fill="none" opacity=".98"/>
   <rect x="-134.99" y="-308.53" width="211.57" height="185.85" rx="22.439" ry="22.957" fill="none" stroke="#28b0ea" stroke-linecap="round" stroke-linejoin="round" stroke-opacity=".98039" stroke-width="2.6158"/>
  </g>
 </g>
</svg>
